<?xml version="1.0" encoding="UTF-8" standalone="no"?>
<!DOCTYPE svg PUBLIC "-//W3C//DTD SVG 1.1//EN" "http://www.w3.org/Graphics/SVG/1.1/DTD/svg11.dtd">
<svg width="100%" height="100%" viewBox="0 0 1024 256" version="1.1" xmlns="http://www.w3.org/2000/svg" xmlns:xlink="http://www.w3.org/1999/xlink" xml:space="preserve" xmlns:serif="http://www.serif.com/" style="fill-rule:evenodd;clip-rule:evenodd;stroke-linecap:round;stroke-linejoin:round;stroke-miterlimit:1.5;">
    <g transform="matrix(0.495745,0,0,0.495745,150.996,52.9183)">
        <g transform="matrix(220.575,0,0,220.575,263,212)">
            <path d="M0.734,-0.35C0.734,-0.299 0.726,-0.252 0.709,-0.209C0.692,-0.165 0.669,-0.127 0.638,-0.094C0.607,-0.061 0.57,-0.036 0.529,-0.018C0.487,0.001 0.441,0.01 0.391,0.01C0.341,0.01 0.295,0.001 0.253,-0.018C0.211,-0.036 0.175,-0.061 0.144,-0.094C0.113,-0.127 0.09,-0.165 0.073,-0.209C0.056,-0.252 0.048,-0.299 0.048,-0.35C0.048,-0.401 0.056,-0.448 0.073,-0.492C0.09,-0.535 0.113,-0.573 0.144,-0.606C0.175,-0.639 0.211,-0.664 0.253,-0.683C0.295,-0.701 0.341,-0.71 0.391,-0.71C0.441,-0.71 0.487,-0.701 0.529,-0.683C0.57,-0.664 0.607,-0.639 0.638,-0.606C0.669,-0.573 0.692,-0.535 0.709,-0.492C0.726,-0.448 0.734,-0.401 0.734,-0.35ZM0.624,-0.35C0.624,-0.399 0.614,-0.442 0.594,-0.481C0.574,-0.519 0.547,-0.549 0.512,-0.572C0.476,-0.594 0.436,-0.605 0.391,-0.605C0.345,-0.605 0.305,-0.594 0.27,-0.572C0.235,-0.549 0.207,-0.519 0.188,-0.481C0.168,-0.442 0.158,-0.399 0.158,-0.35C0.158,-0.301 0.168,-0.258 0.188,-0.22C0.207,-0.181 0.235,-0.151 0.27,-0.129C0.305,-0.106 0.345,-0.095 0.391,-0.095C0.436,-0.095 0.476,-0.106 0.512,-0.129C0.547,-0.151 0.574,-0.181 0.594,-0.22C0.614,-0.259 0.624,-0.302 0.624,-0.35Z" style="fill-rule:nonzero;"/>
        </g>
        <g transform="matrix(220.575,0,0,220.575,435.49,212)">
            <path d="M0.138,-0.263C0.138,-0.228 0.146,-0.198 0.162,-0.171C0.177,-0.143 0.198,-0.122 0.224,-0.107C0.249,-0.091 0.277,-0.083 0.306,-0.083C0.339,-0.083 0.368,-0.092 0.393,-0.109C0.418,-0.126 0.438,-0.144 0.453,-0.163L0.51,-0.093C0.497,-0.075 0.48,-0.058 0.458,-0.043C0.436,-0.027 0.411,-0.014 0.383,-0.005C0.355,0.005 0.326,0.01 0.295,0.01C0.247,0.01 0.204,-0.002 0.165,-0.026C0.126,-0.05 0.096,-0.083 0.074,-0.124C0.051,-0.165 0.04,-0.212 0.04,-0.263C0.04,-0.315 0.051,-0.362 0.074,-0.403C0.096,-0.444 0.126,-0.476 0.165,-0.5C0.204,-0.524 0.247,-0.536 0.295,-0.536C0.344,-0.536 0.387,-0.526 0.425,-0.507C0.463,-0.487 0.491,-0.461 0.51,-0.43L0.453,-0.36C0.438,-0.383 0.416,-0.402 0.388,-0.419C0.359,-0.435 0.332,-0.443 0.305,-0.443C0.274,-0.443 0.245,-0.435 0.22,-0.42C0.195,-0.404 0.175,-0.383 0.16,-0.356C0.145,-0.329 0.138,-0.298 0.138,-0.263Z" style="fill-rule:nonzero;"/>
        </g>
        <g transform="matrix(220.575,0,0,220.575,553.498,212)">
            <path d="M0.523,-0.069L0.522,-0.069C0.501,-0.048 0.471,-0.03 0.434,-0.014C0.397,0.002 0.358,0.01 0.317,0.01C0.262,0.01 0.214,-0.002 0.173,-0.025C0.131,-0.048 0.098,-0.079 0.075,-0.12C0.052,-0.16 0.04,-0.206 0.04,-0.257C0.04,-0.316 0.052,-0.366 0.077,-0.408C0.102,-0.449 0.134,-0.481 0.175,-0.504C0.216,-0.526 0.26,-0.537 0.308,-0.537C0.352,-0.537 0.392,-0.526 0.428,-0.505C0.464,-0.483 0.493,-0.453 0.514,-0.415C0.535,-0.377 0.546,-0.333 0.546,-0.282L0.545,-0.238L0.143,-0.238C0.149,-0.191 0.169,-0.153 0.202,-0.126C0.235,-0.098 0.276,-0.084 0.327,-0.084C0.364,-0.084 0.393,-0.091 0.416,-0.105C0.439,-0.118 0.457,-0.131 0.472,-0.144L0.523,-0.069ZM0.308,-0.442C0.269,-0.442 0.234,-0.433 0.205,-0.415C0.176,-0.396 0.156,-0.365 0.147,-0.32L0.441,-0.32L0.441,-0.327C0.439,-0.35 0.432,-0.37 0.419,-0.387C0.405,-0.404 0.389,-0.418 0.37,-0.428C0.351,-0.437 0.33,-0.442 0.308,-0.442Z" style="fill-rule:nonzero;"/>
        </g>
        <g transform="matrix(220.575,0,0,220.575,682.755,212)">
            <rect x="0.072" y="-0.74" width="0.103" height="0.74" style="fill-rule:nonzero;"/>
        </g>
        <g transform="matrix(220.575,0,0,220.575,737.899,212)">
            <rect x="0.072" y="-0.74" width="0.103" height="0.74" style="fill-rule:nonzero;"/>
        </g>
        <g transform="matrix(220.575,0,0,220.575,791.94,212)">
            <path d="M0.43,-0.209L0.43,-0.525L0.533,-0.525L0.533,0L0.43,0L0.43,-0.084C0.415,-0.059 0.392,-0.038 0.363,-0.019C0.333,0.001 0.297,0.01 0.256,0.01C0.201,0.01 0.157,-0.009 0.123,-0.046C0.089,-0.083 0.072,-0.135 0.072,-0.201L0.072,-0.525L0.175,-0.525L0.175,-0.229C0.175,-0.202 0.179,-0.178 0.188,-0.155C0.196,-0.132 0.209,-0.114 0.228,-0.101C0.246,-0.087 0.269,-0.08 0.298,-0.08C0.334,-0.08 0.365,-0.091 0.391,-0.114C0.417,-0.137 0.43,-0.168 0.43,-0.209Z" style="fill-rule:nonzero;"/>
        </g>
        <g transform="matrix(220.575,0,0,220.575,925.388,212)">
            <path d="M0.375,-0.387C0.356,-0.406 0.335,-0.421 0.312,-0.433C0.288,-0.445 0.266,-0.451 0.246,-0.451C0.232,-0.451 0.218,-0.449 0.205,-0.446C0.191,-0.443 0.179,-0.436 0.17,-0.428C0.161,-0.419 0.156,-0.405 0.156,-0.388C0.157,-0.364 0.167,-0.347 0.189,-0.337C0.21,-0.327 0.236,-0.318 0.267,-0.31C0.294,-0.303 0.321,-0.294 0.347,-0.283C0.373,-0.272 0.395,-0.256 0.412,-0.235C0.429,-0.214 0.437,-0.184 0.437,-0.146C0.437,-0.113 0.428,-0.085 0.41,-0.062C0.391,-0.039 0.368,-0.021 0.339,-0.009C0.31,0.004 0.279,0.01 0.247,0.01C0.209,0.01 0.171,0.003 0.135,-0.011C0.097,-0.024 0.066,-0.048 0.04,-0.081L0.11,-0.141C0.128,-0.12 0.149,-0.104 0.172,-0.093C0.195,-0.081 0.223,-0.075 0.256,-0.075C0.269,-0.075 0.281,-0.077 0.294,-0.082C0.307,-0.086 0.318,-0.093 0.327,-0.103C0.335,-0.112 0.34,-0.125 0.34,-0.142C0.34,-0.158 0.335,-0.171 0.326,-0.18C0.316,-0.189 0.303,-0.196 0.287,-0.202C0.271,-0.207 0.253,-0.212 0.234,-0.217C0.205,-0.225 0.177,-0.235 0.15,-0.247C0.122,-0.258 0.099,-0.275 0.081,-0.297C0.062,-0.318 0.053,-0.348 0.053,-0.385C0.053,-0.416 0.062,-0.443 0.08,-0.466C0.097,-0.488 0.12,-0.505 0.149,-0.518C0.178,-0.53 0.208,-0.536 0.241,-0.536C0.272,-0.536 0.306,-0.529 0.343,-0.516C0.38,-0.503 0.41,-0.481 0.434,-0.452L0.375,-0.387Z" style="fill-rule:nonzero;"/>
        </g>
        <g transform="matrix(220.575,0,0,220.575,1031.04,212)">
            <path d="M0.124,-0.211C0.151,-0.172 0.18,-0.141 0.21,-0.12C0.239,-0.098 0.278,-0.087 0.325,-0.087C0.348,-0.087 0.369,-0.091 0.39,-0.098C0.411,-0.105 0.428,-0.116 0.441,-0.13C0.454,-0.144 0.461,-0.161 0.461,-0.18C0.461,-0.213 0.447,-0.239 0.419,-0.258C0.39,-0.277 0.35,-0.291 0.299,-0.301C0.234,-0.314 0.182,-0.337 0.143,-0.371C0.104,-0.403 0.085,-0.451 0.085,-0.514C0.085,-0.554 0.096,-0.589 0.119,-0.618C0.141,-0.647 0.17,-0.67 0.207,-0.686C0.244,-0.702 0.283,-0.71 0.326,-0.71C0.381,-0.71 0.429,-0.699 0.469,-0.678C0.509,-0.657 0.54,-0.626 0.563,-0.587L0.487,-0.512C0.469,-0.542 0.446,-0.566 0.419,-0.585C0.392,-0.604 0.36,-0.613 0.323,-0.613C0.286,-0.613 0.256,-0.604 0.231,-0.588C0.206,-0.571 0.193,-0.547 0.193,-0.517C0.193,-0.483 0.206,-0.458 0.233,-0.443C0.259,-0.427 0.294,-0.414 0.337,-0.405C0.376,-0.397 0.414,-0.385 0.449,-0.368C0.484,-0.351 0.513,-0.33 0.536,-0.304C0.558,-0.277 0.569,-0.245 0.569,-0.208C0.569,-0.141 0.546,-0.088 0.501,-0.049C0.456,-0.01 0.393,0.01 0.314,0.01C0.26,0.01 0.211,-0.001 0.167,-0.022C0.122,-0.043 0.083,-0.078 0.05,-0.126L0.124,-0.211Z" style="fill-rule:nonzero;"/>
        </g>
        <g transform="matrix(220.575,0,0,220.575,1168.68,212)">
            <path d="M0.138,-0.263C0.138,-0.228 0.146,-0.198 0.162,-0.171C0.177,-0.143 0.198,-0.122 0.224,-0.107C0.249,-0.091 0.277,-0.083 0.306,-0.083C0.339,-0.083 0.368,-0.092 0.393,-0.109C0.418,-0.126 0.438,-0.144 0.453,-0.163L0.51,-0.093C0.497,-0.075 0.48,-0.058 0.458,-0.043C0.436,-0.027 0.411,-0.014 0.383,-0.005C0.355,0.005 0.326,0.01 0.295,0.01C0.247,0.01 0.204,-0.002 0.165,-0.026C0.126,-0.05 0.096,-0.083 0.074,-0.124C0.051,-0.165 0.04,-0.212 0.04,-0.263C0.04,-0.315 0.051,-0.362 0.074,-0.403C0.096,-0.444 0.126,-0.476 0.165,-0.5C0.204,-0.524 0.247,-0.536 0.295,-0.536C0.344,-0.536 0.387,-0.526 0.425,-0.507C0.463,-0.487 0.491,-0.461 0.51,-0.43L0.453,-0.36C0.438,-0.383 0.416,-0.402 0.388,-0.419C0.359,-0.435 0.332,-0.443 0.305,-0.443C0.274,-0.443 0.245,-0.435 0.22,-0.42C0.195,-0.404 0.175,-0.383 0.16,-0.356C0.145,-0.329 0.138,-0.298 0.138,-0.263Z" style="fill-rule:nonzero;"/>
        </g>
        <g transform="matrix(220.575,0,0,220.575,1286.69,212)">
            <path d="M0.366,-0.414C0.359,-0.417 0.351,-0.42 0.342,-0.423C0.332,-0.425 0.322,-0.426 0.311,-0.426C0.29,-0.426 0.269,-0.421 0.248,-0.41C0.227,-0.399 0.21,-0.383 0.197,-0.363C0.183,-0.342 0.176,-0.318 0.176,-0.29L0.176,0L0.072,0L0.072,-0.525L0.176,-0.525L0.176,-0.426C0.191,-0.458 0.213,-0.484 0.243,-0.505C0.272,-0.526 0.303,-0.536 0.336,-0.536C0.361,-0.536 0.38,-0.533 0.393,-0.526L0.366,-0.414Z" style="fill-rule:nonzero;"/>
        </g>
        <g transform="matrix(220.575,0,0,220.575,1375.58,212)">
            <path d="M0.141,-0.639C0.118,-0.639 0.1,-0.645 0.089,-0.657C0.078,-0.669 0.072,-0.685 0.072,-0.704C0.072,-0.721 0.078,-0.736 0.089,-0.749C0.1,-0.762 0.118,-0.769 0.141,-0.769C0.164,-0.769 0.182,-0.763 0.193,-0.751C0.204,-0.739 0.21,-0.723 0.21,-0.704C0.21,-0.687 0.204,-0.672 0.193,-0.659C0.182,-0.646 0.164,-0.639 0.141,-0.639ZM0.194,0L0.091,0L0.091,-0.525L0.194,-0.525L0.194,0Z" style="fill-rule:nonzero;"/>
        </g>
        <g transform="matrix(220.575,0,0,220.575,1436.9,212)">
            <path d="M0.346,-0.534C0.393,-0.534 0.435,-0.523 0.472,-0.5C0.509,-0.476 0.538,-0.445 0.559,-0.404C0.58,-0.363 0.591,-0.316 0.591,-0.263C0.591,-0.21 0.58,-0.164 0.559,-0.123C0.538,-0.082 0.509,-0.049 0.472,-0.026C0.435,-0.003 0.394,0.009 0.349,0.009C0.312,0.009 0.278,0.001 0.248,-0.015C0.217,-0.031 0.193,-0.049 0.176,-0.07L0.176,0.22L0.072,0.22L0.072,-0.526L0.176,-0.526L0.176,-0.449C0.191,-0.471 0.214,-0.491 0.245,-0.508C0.276,-0.525 0.309,-0.534 0.346,-0.534ZM0.332,-0.439C0.301,-0.439 0.273,-0.431 0.249,-0.416C0.224,-0.401 0.205,-0.38 0.192,-0.354C0.178,-0.327 0.171,-0.297 0.171,-0.263C0.171,-0.23 0.178,-0.2 0.192,-0.173C0.205,-0.146 0.224,-0.125 0.249,-0.11C0.273,-0.094 0.301,-0.086 0.332,-0.086C0.363,-0.086 0.391,-0.094 0.415,-0.11C0.439,-0.125 0.458,-0.146 0.472,-0.173C0.485,-0.2 0.492,-0.23 0.492,-0.263C0.492,-0.297 0.485,-0.327 0.472,-0.354C0.458,-0.38 0.439,-0.401 0.415,-0.416C0.391,-0.431 0.363,-0.439 0.332,-0.439Z" style="fill-rule:nonzero;"/>
        </g>
        <g transform="matrix(220.575,0,0,220.575,1576.08,212)">
            <path d="M0.24,0L0.137,0L0.137,-0.425L0.028,-0.425L0.028,-0.525L0.137,-0.525L0.137,-0.659L0.24,-0.659L0.24,-0.525L0.362,-0.525L0.362,-0.425L0.24,-0.425L0.24,0Z" style="fill-rule:nonzero;"/>
        </g>
    </g>
    <g>
        <g transform="matrix(1,0,0,1,3,24.2989)">
            <path d="M44,69.633C45.193,102.608 50.878,137.171 71,159C127.686,166.028 177.057,132.104 218,85.788C212.707,92.737 140.576,51.718 115,47.479C93.397,47.925 65.739,56.498 44,69.633Z" style="fill:rgb(93,190,163);"/>
            <clipPath id="_clip1">
                <path d="M44,69.633C45.193,102.608 50.878,137.171 71,159C127.686,166.028 177.057,132.104 218,85.788C212.707,92.737 140.576,51.718 115,47.479C93.397,47.925 65.739,56.498 44,69.633Z"/>
            </clipPath>
            <g clip-path="url(#_clip1)">
                <g transform="matrix(0.962356,-0.271791,0.271791,0.962356,-25.9846,22.3938)">
                    <ellipse cx="56.5" cy="109.739" rx="42.5" ry="62.261" style="fill:rgb(147,220,198);"/>
                </g>
            </g>
        </g>
        <g transform="matrix(1,0,0,1,3,24.2989)">
            <path d="M38,73.927C140.023,2.493 166.506,100.195 245,83.927" style="fill:none;stroke:rgb(8,4,4);stroke-width:4.5px;"/>
        </g>
        <g transform="matrix(0.995796,0.0915965,-0.0770044,0.837158,5.97342,9.81105)">
            <path d="M44.13,69.85C44.13,69.85 44.352,80.795 55.022,89.172" style="fill:none;stroke:black;stroke-width:3.79px;"/>
        </g>
        <g transform="matrix(0.995796,0.0915965,-0.0770044,0.837158,13.9734,5.81105)">
            <path d="M44.13,69.85C44.13,69.85 44.352,80.795 55.022,89.172" style="fill:none;stroke:black;stroke-width:3.79px;"/>
        </g>
        <g transform="matrix(0.995796,0.0915965,-0.0770044,0.837158,21.9734,1.81105)">
            <path d="M44.13,69.85C44.13,69.85 44.352,80.795 55.022,89.172" style="fill:none;stroke:black;stroke-width:3.79px;"/>
        </g>
    </g>
</svg>
