<?xml version="1.0" encoding="UTF-8" standalone="no"?>
<!DOCTYPE svg PUBLIC "-//W3C//DTD SVG 1.1//EN" "http://www.w3.org/Graphics/SVG/1.1/DTD/svg11.dtd">
<svg width="100%" height="100%" viewBox="0 0 1024 256" version="1.1" xmlns="http://www.w3.org/2000/svg" xmlns:xlink="http://www.w3.org/1999/xlink" xml:space="preserve" xmlns:serif="http://www.serif.com/" style="fill-rule:evenodd;clip-rule:evenodd;stroke-linecap:round;stroke-linejoin:round;stroke-miterlimit:1.5;">
    <g transform="matrix(0.539876,0,0,0.539876,64.913,46.7804)">
        <g transform="matrix(220.575,0,0,220.575,374.286,202.828)">
            <path d="M0.689,-0.325C0.689,-0.233 0.659,-0.154 0.6,-0.089C0.54,-0.023 0.46,0.01 0.36,0.01C0.259,0.01 0.18,-0.023 0.122,-0.089C0.064,-0.155 0.035,-0.234 0.035,-0.325C0.035,-0.418 0.065,-0.498 0.125,-0.563C0.185,-0.628 0.264,-0.66 0.362,-0.66C0.461,-0.66 0.541,-0.627 0.6,-0.562C0.659,-0.497 0.689,-0.418 0.689,-0.325ZM0.591,-0.323C0.591,-0.398 0.571,-0.46 0.53,-0.508C0.489,-0.555 0.433,-0.579 0.362,-0.579C0.289,-0.579 0.232,-0.555 0.193,-0.506C0.153,-0.456 0.133,-0.397 0.133,-0.326C0.133,-0.257 0.153,-0.197 0.192,-0.147C0.231,-0.096 0.288,-0.071 0.364,-0.071C0.437,-0.071 0.494,-0.095 0.533,-0.143C0.572,-0.191 0.591,-0.251 0.591,-0.323Z" style="fill-rule:nonzero;"/>
        </g>
        <g transform="matrix(220.575,0,0,220.575,533.983,202.828)">
            <path d="M0.436,-0.155C0.431,-0.116 0.413,-0.078 0.384,-0.043C0.354,-0.008 0.307,0.01 0.242,0.01C0.179,0.01 0.129,-0.01 0.091,-0.049C0.052,-0.088 0.033,-0.143 0.033,-0.216C0.033,-0.283 0.052,-0.34 0.09,-0.387C0.128,-0.433 0.181,-0.456 0.249,-0.456C0.277,-0.456 0.304,-0.453 0.33,-0.446C0.356,-0.439 0.381,-0.428 0.404,-0.411L0.422,-0.295L0.351,-0.287L0.335,-0.362C0.31,-0.377 0.281,-0.384 0.248,-0.384C0.206,-0.384 0.175,-0.369 0.155,-0.339C0.135,-0.308 0.125,-0.269 0.125,-0.221C0.125,-0.171 0.136,-0.132 0.157,-0.104C0.178,-0.076 0.21,-0.062 0.251,-0.062C0.313,-0.062 0.35,-0.098 0.362,-0.17L0.436,-0.155Z" style="fill-rule:nonzero;"/>
        </g>
        <g transform="matrix(220.575,0,0,220.575,636.33,202.828)">
            <path d="M0.443,-0.132C0.438,-0.093 0.419,-0.06 0.386,-0.032C0.353,-0.004 0.307,0.01 0.25,0.01C0.185,0.01 0.133,-0.009 0.093,-0.048C0.053,-0.087 0.033,-0.143 0.033,-0.216C0.033,-0.285 0.052,-0.343 0.089,-0.388C0.126,-0.433 0.178,-0.456 0.244,-0.456C0.305,-0.456 0.353,-0.437 0.387,-0.399C0.421,-0.361 0.438,-0.315 0.439,-0.261C0.439,-0.243 0.437,-0.224 0.433,-0.204L0.125,-0.204C0.129,-0.109 0.173,-0.062 0.256,-0.062C0.291,-0.062 0.317,-0.07 0.335,-0.087C0.352,-0.104 0.364,-0.124 0.37,-0.147L0.443,-0.132ZM0.348,-0.263C0.351,-0.292 0.343,-0.321 0.327,-0.348C0.31,-0.375 0.281,-0.388 0.242,-0.388C0.205,-0.388 0.178,-0.376 0.16,-0.352C0.141,-0.327 0.13,-0.298 0.126,-0.263L0.348,-0.263Z" style="fill-rule:nonzero;"/>
        </g>
        <g transform="matrix(220.575,0,0,220.575,740.882,202.828)">
            <path d="M0.252,0L0.02,0L0.02,-0.068L0.092,-0.068L0.092,-0.619L0.017,-0.619L0.017,-0.688L0.18,-0.688L0.18,-0.068L0.252,-0.068L0.252,0Z" style="fill-rule:nonzero;"/>
        </g>
        <g transform="matrix(220.575,0,0,220.575,800.879,202.828)">
            <path d="M0.252,0L0.02,0L0.02,-0.068L0.092,-0.068L0.092,-0.619L0.017,-0.619L0.017,-0.688L0.18,-0.688L0.18,-0.068L0.252,-0.068L0.252,0Z" style="fill-rule:nonzero;"/>
        </g>
        <g transform="matrix(220.575,0,0,220.575,860.875,202.828)">
            <path d="M0.553,0L0.39,0L0.39,-0.08C0.359,-0.02 0.309,0.01 0.239,0.01C0.196,0.01 0.159,-0.003 0.129,-0.03C0.098,-0.057 0.083,-0.099 0.083,-0.156L0.083,-0.378L0.011,-0.378L0.011,-0.447L0.171,-0.447L0.171,-0.185C0.171,-0.14 0.18,-0.108 0.198,-0.089C0.215,-0.07 0.239,-0.061 0.269,-0.061C0.305,-0.061 0.334,-0.074 0.356,-0.101C0.378,-0.127 0.389,-0.156 0.39,-0.188L0.39,-0.378L0.303,-0.378L0.303,-0.447L0.478,-0.447L0.478,-0.068L0.553,-0.068L0.553,0Z" style="fill-rule:nonzero;"/>
        </g>
        <g transform="matrix(220.575,0,0,220.575,986.162,202.828)">
            <path d="M0.409,-0.131C0.409,-0.086 0.391,-0.052 0.354,-0.027C0.317,-0.002 0.27,0.01 0.213,0.01C0.144,0.01 0.086,-0.005 0.038,-0.034L0.052,-0.142L0.121,-0.135L0.119,-0.077C0.132,-0.07 0.147,-0.066 0.163,-0.063C0.178,-0.06 0.194,-0.059 0.209,-0.059C0.238,-0.059 0.264,-0.064 0.287,-0.075C0.31,-0.086 0.321,-0.102 0.321,-0.125C0.321,-0.147 0.312,-0.163 0.293,-0.172C0.274,-0.181 0.251,-0.187 0.224,-0.192C0.196,-0.197 0.168,-0.203 0.141,-0.21C0.114,-0.217 0.091,-0.229 0.072,-0.246C0.053,-0.263 0.044,-0.288 0.044,-0.323C0.044,-0.373 0.063,-0.408 0.1,-0.427C0.136,-0.446 0.176,-0.456 0.218,-0.456C0.249,-0.456 0.278,-0.452 0.305,-0.445C0.332,-0.437 0.356,-0.427 0.378,-0.415L0.388,-0.307L0.318,-0.299L0.308,-0.369C0.281,-0.382 0.252,-0.388 0.222,-0.388C0.197,-0.388 0.177,-0.383 0.161,-0.374C0.145,-0.365 0.137,-0.349 0.137,-0.328C0.137,-0.307 0.146,-0.293 0.165,-0.284C0.183,-0.275 0.206,-0.269 0.233,-0.265C0.26,-0.26 0.287,-0.254 0.314,-0.247C0.341,-0.24 0.363,-0.227 0.382,-0.21C0.4,-0.193 0.409,-0.166 0.409,-0.131Z" style="fill-rule:nonzero;"/>
        </g>
        <g transform="matrix(220.575,0,0,220.575,1084.1,202.828)">
            <path d="M0.5,-0.186C0.5,-0.123 0.478,-0.074 0.434,-0.041C0.389,-0.007 0.332,0.01 0.261,0.01C0.218,0.01 0.177,0.005 0.138,-0.006C0.099,-0.016 0.069,-0.03 0.046,-0.047L0.061,-0.185L0.134,-0.178L0.132,-0.097C0.154,-0.086 0.175,-0.078 0.196,-0.075C0.216,-0.071 0.236,-0.069 0.256,-0.069C0.297,-0.069 0.332,-0.077 0.361,-0.093C0.389,-0.108 0.403,-0.136 0.403,-0.177C0.403,-0.222 0.387,-0.252 0.356,-0.267C0.324,-0.281 0.288,-0.292 0.249,-0.3C0.218,-0.307 0.187,-0.315 0.157,-0.325C0.126,-0.335 0.101,-0.352 0.081,-0.375C0.06,-0.398 0.05,-0.431 0.05,-0.475C0.05,-0.54 0.072,-0.587 0.115,-0.616C0.158,-0.645 0.208,-0.66 0.265,-0.66C0.303,-0.66 0.341,-0.655 0.378,-0.644C0.415,-0.632 0.444,-0.618 0.465,-0.601L0.471,-0.468L0.398,-0.461L0.387,-0.552C0.368,-0.563 0.348,-0.57 0.328,-0.574C0.308,-0.578 0.289,-0.58 0.271,-0.58C0.234,-0.58 0.204,-0.572 0.182,-0.556C0.159,-0.54 0.147,-0.516 0.147,-0.485C0.147,-0.448 0.161,-0.424 0.189,-0.411C0.217,-0.398 0.248,-0.387 0.282,-0.379C0.31,-0.373 0.341,-0.365 0.375,-0.355C0.409,-0.344 0.438,-0.326 0.463,-0.301C0.488,-0.276 0.5,-0.237 0.5,-0.186Z" style="fill-rule:nonzero;"/>
        </g>
        <g transform="matrix(220.575,0,0,220.575,1203.21,202.828)">
            <path d="M0.436,-0.155C0.431,-0.116 0.413,-0.078 0.384,-0.043C0.354,-0.008 0.307,0.01 0.242,0.01C0.179,0.01 0.129,-0.01 0.091,-0.049C0.052,-0.088 0.033,-0.143 0.033,-0.216C0.033,-0.283 0.052,-0.34 0.09,-0.387C0.128,-0.433 0.181,-0.456 0.249,-0.456C0.277,-0.456 0.304,-0.453 0.33,-0.446C0.356,-0.439 0.381,-0.428 0.404,-0.411L0.422,-0.295L0.351,-0.287L0.335,-0.362C0.31,-0.377 0.281,-0.384 0.248,-0.384C0.206,-0.384 0.175,-0.369 0.155,-0.339C0.135,-0.308 0.125,-0.269 0.125,-0.221C0.125,-0.171 0.136,-0.132 0.157,-0.104C0.178,-0.076 0.21,-0.062 0.251,-0.062C0.313,-0.062 0.35,-0.098 0.362,-0.17L0.436,-0.155Z" style="fill-rule:nonzero;"/>
        </g>
        <g transform="matrix(220.575,0,0,220.575,1305.56,202.828)">
            <path d="M0.293,-0.454C0.324,-0.454 0.351,-0.446 0.373,-0.43L0.391,-0.305L0.322,-0.297L0.305,-0.374C0.294,-0.379 0.282,-0.381 0.27,-0.381C0.247,-0.381 0.228,-0.372 0.213,-0.353C0.198,-0.333 0.19,-0.309 0.19,-0.278L0.19,-0.068L0.286,-0.068L0.286,0L0.03,0L0.03,-0.068L0.102,-0.068L0.102,-0.378L0.027,-0.378L0.027,-0.447L0.184,-0.447L0.184,-0.365C0.193,-0.39 0.206,-0.412 0.225,-0.429C0.243,-0.446 0.266,-0.454 0.293,-0.454Z" style="fill-rule:nonzero;"/>
        </g>
        <g transform="matrix(220.575,0,0,220.575,1399.52,202.828)">
            <path d="M0.1,-0.552L0.1,-0.655L0.191,-0.655L0.191,-0.552L0.1,-0.552ZM0.266,0L0.033,0L0.033,-0.068L0.106,-0.068L0.106,-0.378L0.03,-0.378L0.03,-0.447L0.194,-0.447L0.194,-0.068L0.266,-0.068L0.266,0Z" style="fill-rule:nonzero;"/>
        </g>
        <g transform="matrix(220.575,0,0,220.575,1462.6,202.828)">
            <path d="M0.523,-0.235C0.523,-0.174 0.507,-0.118 0.474,-0.067C0.441,-0.016 0.389,0.01 0.318,0.01C0.252,0.01 0.204,-0.014 0.174,-0.063L0.174,0.143L0.271,0.143L0.271,0.213L0.014,0.213L0.014,0.143L0.087,0.143L0.087,-0.378L0.011,-0.378L0.011,-0.447L0.174,-0.447L0.174,-0.356C0.187,-0.383 0.206,-0.406 0.231,-0.426C0.256,-0.446 0.289,-0.456 0.33,-0.456C0.387,-0.456 0.434,-0.437 0.47,-0.398C0.505,-0.359 0.523,-0.304 0.523,-0.235ZM0.431,-0.227C0.431,-0.278 0.419,-0.317 0.396,-0.344C0.372,-0.371 0.341,-0.384 0.304,-0.384C0.266,-0.384 0.235,-0.369 0.212,-0.339C0.189,-0.309 0.176,-0.277 0.175,-0.242L0.174,-0.19C0.174,-0.153 0.186,-0.122 0.21,-0.098C0.234,-0.074 0.264,-0.062 0.299,-0.062C0.344,-0.062 0.377,-0.078 0.399,-0.11C0.42,-0.141 0.431,-0.18 0.431,-0.227Z" style="fill-rule:nonzero;"/>
        </g>
        <g transform="matrix(220.575,0,0,220.575,1585.24,202.828)">
            <path d="M0.378,-0.126C0.365,-0.035 0.315,0.01 0.228,0.01C0.182,0.01 0.146,-0.003 0.121,-0.028C0.095,-0.053 0.082,-0.087 0.082,-0.132L0.082,-0.38L0.013,-0.38L0.013,-0.447L0.082,-0.447L0.082,-0.588L0.169,-0.588L0.169,-0.447L0.34,-0.447L0.34,-0.38L0.169,-0.38L0.169,-0.145C0.169,-0.092 0.192,-0.065 0.238,-0.065C0.253,-0.065 0.267,-0.07 0.282,-0.08C0.297,-0.089 0.307,-0.112 0.313,-0.147L0.378,-0.126Z" style="fill-rule:nonzero;"/>
        </g>
    </g>
    <g>
        <g transform="matrix(1,0,0,1,3,24.2989)">
            <path d="M44,69.633C45.193,102.608 50.878,137.171 71,159C127.686,166.028 177.057,132.104 218,85.788C212.707,92.737 140.576,51.718 115,47.479C93.397,47.925 65.739,56.498 44,69.633Z" style="fill:rgb(93,190,163);"/>
            <clipPath id="_clip1">
                <path d="M44,69.633C45.193,102.608 50.878,137.171 71,159C127.686,166.028 177.057,132.104 218,85.788C212.707,92.737 140.576,51.718 115,47.479C93.397,47.925 65.739,56.498 44,69.633Z"/>
            </clipPath>
            <g clip-path="url(#_clip1)">
                <g transform="matrix(0.962356,-0.271791,0.271791,0.962356,-25.9846,22.3938)">
                    <ellipse cx="56.5" cy="109.739" rx="42.5" ry="62.261" style="fill:rgb(147,220,198);"/>
                </g>
            </g>
        </g>
        <g transform="matrix(1,0,0,1,3,24.2989)">
            <path d="M38,73.927C140.023,2.493 166.506,100.195 245,83.927" style="fill:none;stroke:rgb(8,4,4);stroke-width:4.5px;"/>
        </g>
        <g transform="matrix(0.995796,0.0915965,-0.0770044,0.837158,5.97342,9.81105)">
            <path d="M44.13,69.85C44.13,69.85 44.352,80.795 55.022,89.172" style="fill:none;stroke:black;stroke-width:3.79px;"/>
        </g>
        <g transform="matrix(0.995796,0.0915965,-0.0770044,0.837158,13.9734,5.81105)">
            <path d="M44.13,69.85C44.13,69.85 44.352,80.795 55.022,89.172" style="fill:none;stroke:black;stroke-width:3.79px;"/>
        </g>
        <g transform="matrix(0.995796,0.0915965,-0.0770044,0.837158,21.9734,1.81105)">
            <path d="M44.13,69.85C44.13,69.85 44.352,80.795 55.022,89.172" style="fill:none;stroke:black;stroke-width:3.79px;"/>
        </g>
    </g>
</svg>
