<?xml version="1.0" encoding="UTF-8" standalone="no"?>
<!DOCTYPE svg PUBLIC "-//W3C//DTD SVG 1.1//EN" "http://www.w3.org/Graphics/SVG/1.1/DTD/svg11.dtd">
<svg width="100%" height="100%" viewBox="0 0 818 499" version="1.1" xmlns="http://www.w3.org/2000/svg" xmlns:xlink="http://www.w3.org/1999/xlink" xml:space="preserve" xmlns:serif="http://www.serif.com/" style="fill-rule:evenodd;clip-rule:evenodd;stroke-linejoin:round;stroke-miterlimit:2;">
    <g transform="matrix(0.828759,0,0,0.828759,-295.9,-166.401)">
        <g transform="matrix(568.191,0,0,568.191,408.391,668)">
            <path d="M0.456,-0.289L0.578,-0.289L0.578,-0.19L0.456,-0.19L0.456,0L0.352,0L0.352,-0.19L0.177,-0.19L0.226,-0.289L0.352,-0.289L0.352,-0.527L0.331,-0.501L0.429,-0.7L0.456,-0.7L0.456,-0.289Z" style="fill:rgb(143,192,169);"/>
        </g>
        <g transform="matrix(1.20662,0,0,1.20662,235.866,-118.824)">
            <path d="M147.513,710.246L100.423,710.246L294.432,318.463L341.05,318.463L147.513,710.246Z" style="fill:rgb(75,124,89);"/>
        </g>
        <g transform="matrix(568.191,0,0,568.191,713.611,668)">
            <path d="M0.303,0.01C0.247,0.01 0.2,-0.005 0.162,-0.037C0.123,-0.068 0.094,-0.11 0.075,-0.164C0.056,-0.218 0.046,-0.28 0.046,-0.35C0.046,-0.42 0.056,-0.482 0.075,-0.536C0.094,-0.59 0.123,-0.632 0.162,-0.664C0.2,-0.695 0.247,-0.71 0.303,-0.71C0.36,-0.71 0.407,-0.695 0.445,-0.664C0.483,-0.632 0.512,-0.59 0.532,-0.536C0.551,-0.482 0.561,-0.42 0.561,-0.35C0.561,-0.28 0.551,-0.218 0.532,-0.164C0.512,-0.11 0.483,-0.068 0.445,-0.037C0.407,-0.005 0.36,0.01 0.303,0.01ZM0.303,-0.088C0.351,-0.088 0.389,-0.111 0.416,-0.156C0.443,-0.201 0.456,-0.266 0.456,-0.35C0.456,-0.434 0.443,-0.499 0.416,-0.544C0.389,-0.589 0.351,-0.612 0.303,-0.612C0.255,-0.612 0.218,-0.589 0.191,-0.544C0.164,-0.499 0.15,-0.434 0.15,-0.35C0.15,-0.266 0.164,-0.201 0.191,-0.156C0.218,-0.111 0.255,-0.088 0.303,-0.088Z" style="fill:rgb(143,192,169);fill-rule:nonzero;"/>
        </g>
        <g transform="matrix(568.191,0,0,568.191,1015.32,668)">
            <path d="M0.352,0L0.352,-0.19L0.076,-0.19L0.03,-0.28L0.373,-0.7L0.456,-0.7L0.456,-0.289L0.578,-0.289L0.578,-0.19L0.456,-0.19L0.456,0L0.352,0ZM0.157,-0.289L0.352,-0.289L0.352,-0.527L0.157,-0.289Z" style="fill:rgb(143,192,169);fill-rule:nonzero;"/>
        </g>
    </g>
</svg>
