<?xml version="1.0" standalone="no"?>
<!DOCTYPE svg PUBLIC "-//W3C//DTD SVG 20010904//EN"
 "http://www.w3.org/TR/2001/REC-SVG-20010904/DTD/svg10.dtd">
<svg version="1.0" xmlns="http://www.w3.org/2000/svg"
 width="700.000000pt" height="700.000000pt" viewBox="0 0 700.000000 700.000000"
 preserveAspectRatio="xMidYMid meet">
<metadata>
Created by potrace 1.11, written by Peter Selinger 2001-2013
</metadata>
<g transform="translate(0.000000,700.000000) scale(0.100000,-0.100000)"
fill="#000000" stroke="none">
<path d="M0 3500 l0 -3500 3500 0 3500 0 0 3500 0 3500 -3500 0 -3500 0 0
-3500z m2957 1688 c-2 -7 -379 -772 -838 -1700 l-833 -1688 -203 0 -203 0 53
108 c30 59 408 824 842 1700 l788 1592 200 0 c155 0 198 -3 194 -12z m2409
-233 c303 -52 538 -195 692 -423 l41 -59 -152 -151 c-84 -84 -155 -152 -158
-152 -3 0 -23 25 -44 56 -86 130 -259 269 -386 311 -286 94 -627 8 -731 -184
-48 -87 -54 -232 -15 -324 50 -121 228 -222 505 -289 351 -85 489 -138 672
-258 172 -113 274 -246 315 -407 19 -75 20 -250 1 -347 -34 -176 -93 -285
-226 -418 -139 -139 -275 -209 -500 -257 -121 -26 -469 -26 -587 0 -102 23
-219 60 -302 98 -152 69 -331 217 -445 367 -48 63 -48 63 -29 85 11 12 79 91
152 174 l133 153 68 -88 c81 -103 212 -233 294 -290 68 -48 184 -95 276 -112
36 -7 119 -13 185 -12 204 0 342 49 456 162 83 82 104 137 96 246 -11 151 -92
256 -259 337 -117 56 -180 77 -393 126 -263 61 -395 113 -550 216 -212 141
-312 320 -331 595 -16 234 63 432 237 595 131 123 318 212 524 249 109 19 350
20 461 1z m-2249 -77 c169 -61 388 -215 515 -362 271 -313 398 -719 360 -1154
-14 -158 -32 -252 -73 -375 -89 -269 -271 -527 -483 -684 -261 -194 -506 -273
-844 -273 -225 0 -417 39 -590 120 -80 38 -246 143 -307 194 l-30 26 105 209
104 210 50 -53 c112 -115 256 -202 411 -247 71 -21 100 -24 255 -24 203 0 260
11 408 81 222 104 391 299 485 561 77 212 85 497 21 721 -31 110 -108 268
-172 353 -130 171 -336 305 -525 341 -37 7 -67 15 -67 19 0 3 43 94 95 202
l95 196 53 -16 c28 -8 89 -28 134 -45z"/>
</g>
</svg>
