<?xml version="1.0" encoding="UTF-8" standalone="no"?>
<!DOCTYPE svg PUBLIC "-//W3C//DTD SVG 1.1//EN" "http://www.w3.org/Graphics/SVG/1.1/DTD/svg11.dtd">
<svg width="100%" height="100%" viewBox="0 0 1024 1024" version="1.1" xmlns="http://www.w3.org/2000/svg" xmlns:xlink="http://www.w3.org/1999/xlink" xml:space="preserve" xmlns:serif="http://www.serif.com/" style="fill-rule:evenodd;clip-rule:evenodd;stroke-linecap:round;stroke-linejoin:round;stroke-miterlimit:1.5;">
    <g transform="matrix(4.75845,0,0,4.75845,-175.597,-79.3601)">
        <g transform="matrix(1,0,0,1,3,24.2989)">
            <path d="M44,69.633C45.193,102.608 50.878,137.171 71,159C127.686,166.028 177.057,132.104 218,85.788C212.707,92.737 140.576,51.718 115,47.479C93.397,47.925 65.739,56.498 44,69.633Z" style="fill:none;"/>
            <clipPath id="_clip1">
                <path d="M44,69.633C45.193,102.608 50.878,137.171 71,159C127.686,166.028 177.057,132.104 218,85.788C212.707,92.737 140.576,51.718 115,47.479C93.397,47.925 65.739,56.498 44,69.633Z"/>
            </clipPath>
            <g clip-path="url(#_clip1)">
                <g transform="matrix(0.962356,-0.271791,0.271791,0.962356,-25.9846,22.3938)">
                    <ellipse cx="56.5" cy="109.739" rx="42.5" ry="62.261" style="fill:none;stroke:white;stroke-width:2.21px;"/>
                </g>
            </g>
            <path d="M44,69.633C45.193,102.608 50.878,137.171 71,159C127.686,166.028 177.057,132.104 218,85.788C212.707,92.737 140.576,51.718 115,47.479C93.397,47.925 65.739,56.498 44,69.633Z" style="fill:none;stroke:white;stroke-width:2.63px;"/>
        </g>
        <g transform="matrix(1,0,0,1,3,24.2989)">
            <path d="M38,73.927C140.023,2.493 166.506,100.195 245,83.927" style="fill:none;stroke:white;stroke-width:6.72px;"/>
        </g>
        <g transform="matrix(0.995796,0.0915965,-0.0770044,0.837158,5.97342,9.81105)">
            <path d="M44.13,69.85C44.13,69.85 44.352,80.795 55.022,89.172" style="fill:none;stroke:white;stroke-width:7.17px;"/>
        </g>
        <g transform="matrix(0.995796,0.0915965,-0.0770044,0.837158,13.9734,5.81105)">
            <path d="M44.13,69.85C44.13,69.85 44.352,80.795 55.022,89.172" style="fill:none;stroke:white;stroke-width:7.17px;"/>
        </g>
        <g transform="matrix(0.995796,0.0915965,-0.0770044,0.837158,21.9734,1.81105)">
            <path d="M44.13,69.85C44.13,69.85 44.352,80.795 55.022,89.172" style="fill:none;stroke:white;stroke-width:7.17px;"/>
        </g>
    </g>
</svg>
